# xmcd
#
# Track frame offsets: 
#        150
#        21338
#        48057
#        68856
#        93762
#        113907
#        146459
#        168394
#        190071
#        214782
#        234282
#        276368
#
# Disc length: 4344 seconds
#
# Revision: 3
# Processed by: cddbd v1.5.2PL0 Copyright (c) Steve Scherf et al.
# Submitted via: ExactAudioCopy v0.95a3
#
DISCID=a010f60c
DTITLE=Zanki, Edo and Freunde - Die Ganze Zeit
DYEAR=2001
DGENRE=DeutschRock
TTITLE0=Gib Mir Musik
TTITLE1=Der Erste Tag
TTITLE2=Etwas Ähnliches
TTITLE3=Nur Der Mond
TTITLE4=Land
TTITLE5=Wie Wissen Nicht
TTITLE6=Die Ganze Zeit
TTITLE7=Viel Besser
TTITLE8=Zeit
TTITLE9=Frag Nicht Lang
TTITLE10=Tänzerin
TTITLE11=Daten-CD
EXTD=
EXTT0=
EXTT1=
EXTT2=
EXTT3=
EXTT4=
EXTT5=
EXTT6=
EXTT7=
EXTT8=
EXTT9=
EXTT10=
EXTT11=
PLAYORDER=
